<svg xmlns="http://www.w3.org/2000/svg" width="34.11" height="34.11" viewBox="0 0 34.11 34.11">
  <path id="facebook-square" d="M30.455,32H3.655A3.655,3.655,0,0,0,0,35.655v26.8A3.655,3.655,0,0,0,3.655,66.11H14.1v-11.6h-4.8V49.055h4.8v-4.16c0-4.732,2.817-7.346,7.132-7.346a29.059,29.059,0,0,1,4.227.369v4.644H23.083a2.729,2.729,0,0,0-3.078,2.949v3.544h5.237L24.4,54.513h-4.4v11.6h10.45a3.655,3.655,0,0,0,3.655-3.655v-26.8A3.655,3.655,0,0,0,30.455,32Z" transform="translate(0 -32)" fill="#b6b9d8"/>
</svg>
