<svg xmlns="http://www.w3.org/2000/svg" width="1920" height="866.274" viewBox="0 0 1920 866.274"><g transform="translate(-0.001 -213.726)"><g transform="translate(-22.228 155)"><path d="M0,525.649C0,662.8,51.084,783.742,251.683,792.248s257.335-101.9,439.44,0,353.284-178.81,513.824-29.041,299.715-138.178,512.3-74.852,190.343-214.3,190.343-368.391c0-17.618-.092-33.777,0-46.579.11-15.723-.021-27.071,0-37.209.054-26.771.042-37,0-50.661-.021-6.735-.033-13.776,0-25.628.025-8.816.112-20.988,0-36.31.16-5.889-.054-9.974,0-15.556.212-21.956,0-28.641,0-55.644V.008C1907.591.544,0,1.257,0,1.257V525.649Z" transform="translate(1942.227 873.831) rotate(180)" fill="#e1e5f8"/><path d="M0,525.649C0,662.8,51.084,783.742,251.683,792.248s257.335-101.9,439.44,0,353.284-178.81,513.824-29.041,299.715-138.178,512.3-74.852,190.343-214.3,190.343-368.391c0-17.618-.092-33.777,0-46.579.11-15.723-.021-27.071,0-37.209.054-26.771.042-37,0-50.661-.021-6.735-.033-13.776,0-25.628.025-8.816.112-20.988,0-36.31.16-5.889-.054-9.974,0-15.556.212-21.956,0-28.641,0-55.644V.008C1907.591.544,0,1.257,0,1.257V525.649Z" transform="translate(1942.227 902.874) rotate(180)" fill="#b2b5d8"/></g><g transform="translate(-11.742)"><path d="M.007,815.35V766.426L0,766.141c0-.471,0-.934.006-1.393v-375.1H.8C2.5,242.174,24.029,76.352,194.09,126.756,289.212,154.945,369.718,113.512,444,72.07,536.56,20.445,619.466-31.187,708.978,51.9c85.42,79.287,173.841,37.918,265.3-3.451,81.292-36.773,164.983-73.541,251.113-25.588,117.306,65.313,182.854,43.4,267.889,21.484,47.628-12.271,101.379-24.543,173.763-21.484C1868.659,31.367,1920,152.316,1920,289.461h-.007V813.855s-1672.838.836-1894.6,1.383v.111Z" transform="translate(11.742 264.65)" fill="#161b40"/></g></g></svg>