<svg xmlns="http://www.w3.org/2000/svg" width="509.388" height="356.928" viewBox="0 0 509.388 356.928"><g transform="translate(-1352.12 -3328.954)"><path d="M43.414,173.974H0V15A15,15,0,0,1,15,0H174.082V47.152a19.909,19.909,0,0,1,8.829,2.67l26.94,15.529a20,20,0,0,1,0,34.655l-26.94,15.53a19.907,19.907,0,0,1-8.829,2.669v55.769H124.295a40.442,40.442,0,0,1-80.88,0Z" transform="matrix(0.94, -0.342, 0.342, 0.94, 1400.734, 3467.24)" fill="#00002a"/><path d="M43.353,174.051H0V15A15,15,0,0,1,15,0H173.834V47.2a19.9,19.9,0,0,1,8.874,2.68L209.579,65.4a20,20,0,0,1,0,34.638l-26.871,15.52a19.922,19.922,0,0,1-8.874,2.68v55.816H124.118a40.383,40.383,0,0,1-80.765,0Z" transform="matrix(0.94, -0.342, 0.342, 0.94, 1352.12, 3484.635)" fill="#efa500"/><path d="M48.442,159.431H16a16,16,0,0,1-16-16v-36.3a19.766,19.766,0,0,0,9.5-2.7L29.167,93.093a20,20,0,0,0,0-34.655L9.5,47.1A19.76,19.76,0,0,0,0,44.4V16A16,16,0,0,1,16,0H143.531a16,16,0,0,1,15.99,15.449c.811-.045,1.637-.067,2.453-.067a44.03,44.03,0,0,1,31.089,12.758,43.4,43.4,0,0,1,9.422,13.845,43.327,43.327,0,0,1,0,33.909,43.388,43.388,0,0,1-9.422,13.846A44.04,44.04,0,0,1,161.975,102.5c-.811,0-1.634-.022-2.444-.067v41a16,16,0,0,1-16,16H110.513a20.146,20.146,0,0,0-2.372-6.377L96.8,133.384a20,20,0,0,0-34.655,0L50.811,153.052a20.131,20.131,0,0,0-2.371,6.377Z" transform="matrix(0.94, -0.342, 0.342, 0.94, 1613.458, 3399.39)" fill="#160040"/><path d="M48.442,159.431H15a15,15,0,0,1-15-15v-37.3a19.766,19.766,0,0,0,9.5-2.7L29.167,93.093a20,20,0,0,0,0-34.655L9.5,47.1A19.76,19.76,0,0,0,0,44.4V15A15,15,0,0,1,15,0H144.531a15,15,0,0,1,15,15v.449c.808-.045,1.631-.067,2.444-.067a44.03,44.03,0,0,1,31.089,12.758,43.4,43.4,0,0,1,9.422,13.845,43.327,43.327,0,0,1,0,33.909,43.388,43.388,0,0,1-9.422,13.846A44.04,44.04,0,0,1,161.975,102.5c-.811,0-1.634-.022-2.444-.067v42a15,15,0,0,1-15,15H110.513a20.146,20.146,0,0,0-2.372-6.377L96.8,133.384a20,20,0,0,0-34.655,0L50.811,153.052a20.131,20.131,0,0,0-2.371,6.377Z" transform="matrix(0.94, -0.342, 0.342, 0.94, 1580.156, 3411.511)" fill="#f40085"/></g></svg>