<svg xmlns="http://www.w3.org/2000/svg" width="34.988" height="34.114" viewBox="0 0 34.988 34.114">
  <path id="github" d="M11.7,35.469c0,.141-.162.254-.367.254-.233.021-.4-.092-.4-.254,0-.141.162-.254.367-.254C11.519,35.194,11.7,35.306,11.7,35.469Zm-2.194-.317c-.049.141.092.3.3.346a.331.331,0,0,0,.437-.141c.042-.141-.092-.3-.3-.367a.362.362,0,0,0-.437.162Zm3.118-.12c-.2.049-.346.183-.324.346.021.141.2.233.416.183s.346-.183.324-.324S12.831,35.01,12.627,35.031ZM17.268,8A16.915,16.915,0,0,0,0,25.212,17.685,17.685,0,0,0,11.957,42.085c.9.162,1.22-.4,1.22-.854,0-.437-.021-2.85-.021-4.331,0,0-4.938,1.058-5.975-2.1,0,0-.8-2.053-1.961-2.582,0,0-1.615-1.107.113-1.086a3.724,3.724,0,0,1,2.723,1.82A3.729,3.729,0,0,0,13.2,34.425a3.921,3.921,0,0,1,1.129-2.377c-3.943-.437-7.922-1.009-7.922-7.795A5.346,5.346,0,0,1,8.07,20.1a6.665,6.665,0,0,1,.183-4.79c1.474-.459,4.867,1.9,4.867,1.9a16.665,16.665,0,0,1,8.86,0s3.393-2.37,4.867-1.9a6.662,6.662,0,0,1,.183,4.79,5.483,5.483,0,0,1,1.82,4.155c0,6.807-4.155,7.35-8.1,7.795a4.172,4.172,0,0,1,1.2,3.273c0,2.377-.021,5.319-.021,5.9,0,.459.324,1.016,1.22.854A17.522,17.522,0,0,0,34.988,25.212C34.988,15.428,27.052,8,17.268,8ZM6.857,32.33c-.092.071-.071.233.049.367.113.113.275.162.367.071.092-.071.071-.233-.049-.367C7.111,32.287,6.948,32.238,6.857,32.33Zm-.762-.571c-.049.092.021.2.162.275a.21.21,0,0,0,.3-.049c.049-.092-.021-.2-.162-.275C6.257,31.667,6.144,31.688,6.095,31.758ZM8.38,34.269c-.113.092-.071.3.092.437.162.162.367.183.459.071.092-.092.049-.3-.092-.437C8.684,34.178,8.472,34.157,8.38,34.269Zm-.8-1.037c-.113.071-.113.254,0,.416s.3.233.4.162a.322.322,0,0,0,0-.437C7.872,33.211,7.689,33.141,7.576,33.233Z" transform="translate(0 -8)" fill="#b6b9d8"/>
</svg>
