<svg xmlns="http://www.w3.org/2000/svg" width="1873.045" height="865.828" viewBox="0 0 1873.045 865.828"><g transform="translate(-17.993 -123.004)"><path d="M7943.74-7576.65c0,137.148,50.116,258.092,246.909,266.6s252.455-101.9,431.1,0,346.585-178.81,504.079-29.041,294.031-138.178,502.585-74.852,186.731-214.3,186.731-368.391c0-17.618-.089-33.777,0-46.579.109-15.723-.02-27.071,0-37.209.055-26.771.041-37,0-50.661-.021-6.735-.032-13.776,0-25.628.025-8.816.11-20.988,0-36.31.157-5.889-.052-9.974,0-15.556.208-21.956,0-28.641,0-55.644v-52.37c0,.536-1871.41,1.249-1871.41,1.249v524.392Z" transform="translate(-7925.742 8276.023)" fill="#e1e5f8"/><path d="M7943.74-7576.65c0,137.148,50.116,258.092,246.909,266.6s252.455-101.9,431.1,0,346.585-178.81,504.079-29.041,294.031-138.178,502.585-74.852,186.731-214.3,186.731-368.391c0-17.618-.089-33.777,0-46.579.109-15.723-.02-27.071,0-37.209.055-26.771.041-37,0-50.661-.021-6.735-.032-13.776,0-25.628.025-8.816.11-20.988,0-36.31.157-5.889-.052-9.974,0-15.556.208-21.956,0-28.641,0-55.644v-52.37c0,.536-1871.41,1.249-1871.41,1.249v524.392Z" transform="translate(-7925.742 8246.982)" fill="#b2b5d8"/><path d="M7943.74-7576.65c0,137.148,50.142,258.092,247.038,266.6s252.586-101.9,431.329,0,346.767-178.81,504.342-29.041,294.185-138.178,502.848-74.852,186.828-214.3,186.828-368.391c0-17.618-.089-33.777,0-46.579.109-15.723-.02-27.071,0-37.209.055-26.771.041-37,0-50.661-.021-6.735-.032-13.776,0-25.628.025-8.816.11-20.988,0-36.31.157-5.889-.052-9.974,0-15.556.207-21.956,0-28.641,0-55.644v-52.37c0,.536-1872.38,1.249-1872.38,1.249v524.392Z" transform="translate(-7925.742 8225.296)" fill="#161b40"/></g></svg>