<svg xmlns="http://www.w3.org/2000/svg" width="765.237" height="495.717" viewBox="0 0 765.237 495.717"><g transform="translate(-1106.881 -168.34)"><path d="M65.327,261.783H0V15A15,15,0,0,1,15,0H261.945V67.31l68.993,39.772a20,20,0,0,1,0,34.654l-68.993,39.772v80.275H187.029c0,33.32-27.244,60.331-60.851,60.331S65.327,295.1,65.327,261.783Z" transform="translate(1181.679 333.275) rotate(-16)" fill="#00002a"/><path d="M65.235,261.9H0V15A15,15,0,0,1,15,0H261.573V67.34L330.5,107.146a20,20,0,0,1,0,34.637l-68.923,39.806V261.9h-74.81c0,33.335-27.205,60.358-60.764,60.358S65.235,295.234,65.235,261.9Z" transform="translate(1106.881 354.283) rotate(-16)" fill="#efa500"/><path d="M70.924,239.9H16a16,16,0,0,1-16-16V165.38l59.06-34.045a20,20,0,0,0,0-34.655L0,62.635V16A16,16,0,0,1,16,0H224.05a16,16,0,0,1,16,16v7.247c1.219-.067,2.457-.1,3.678-.1a66.26,66.26,0,0,1,46.779,19.2,65.283,65.283,0,0,1,14.178,20.833,65.193,65.193,0,0,1,0,51.025,65.287,65.287,0,0,1-14.178,20.834,66.261,66.261,0,0,1-46.779,19.2c-1.219,0-2.457-.034-3.678-.1V223.9a16,16,0,0,1-16,16h-55.8l-31.338-54.364a20,20,0,0,0-34.654,0L70.924,239.9Z" transform="translate(1508.112 253.756) rotate(-16)" fill="#160040"/><path d="M70.924,239.9H15a15,15,0,0,1-15-15V165.38l59.06-34.045a20,20,0,0,0,0-34.655L0,62.635V15A15,15,0,0,1,15,0H225.05a15,15,0,0,1,15,15v8.247c1.219-.067,2.457-.1,3.678-.1a66.26,66.26,0,0,1,46.779,19.2,65.283,65.283,0,0,1,14.178,20.833,65.193,65.193,0,0,1,0,51.025,65.287,65.287,0,0,1-14.178,20.834,66.261,66.261,0,0,1-46.779,19.2c-1.219,0-2.457-.034-3.678-.1V224.9a15,15,0,0,1-15,15h-56.8l-31.338-54.364a20,20,0,0,0-34.654,0L70.924,239.9Z" transform="translate(1456.853 268.455) rotate(-16)" fill="#f40085"/></g></svg>