<svg xmlns="http://www.w3.org/2000/svg" width="18.534" height="18.418" viewBox="0 0 18.534 18.418"><path d="M0,32V50.418H18.534V32ZM10.086,46.364a2.361,2.361,0,0,1-2.6,2.611,2.707,2.707,0,0,1-2.615-1.583l1.419-.851c.273.481.521.888,1.121.888.571,0,.935-.222.935-1.089V40.457h1.742Zm4.12,2.611a3.346,3.346,0,0,1-3.173-1.768l1.419-.814a1.9,1.9,0,0,0,1.717,1.052c.72,0,1.183-.358,1.183-.855,0-.592-.472-.8-1.27-1.151l-.434-.185c-1.258-.53-2.089-1.2-2.089-2.611a2.321,2.321,0,0,1,2.548-2.286,2.568,2.568,0,0,1,2.474,1.385l-1.357.863a1.185,1.185,0,0,0-1.121-.74.754.754,0,0,0-.832.74c0,.518.323.728,1.071,1.052l.434.185c1.481.629,2.313,1.274,2.313,2.722C17.09,48.12,15.857,48.975,14.207,48.975Z" transform="translate(0 -32)" fill="#161b40"/></svg>