<svg xmlns="http://www.w3.org/2000/svg" width="34.114" height="34.114" viewBox="0 0 34.114 34.114">
  <path id="linkedin" d="M31.677,32H2.429A2.447,2.447,0,0,0,0,34.46v29.2a2.447,2.447,0,0,0,2.429,2.46H31.677a2.454,2.454,0,0,0,2.437-2.46V34.46A2.454,2.454,0,0,0,31.677,32ZM10.31,61.241H5.254V44.96h5.064v16.28Zm-2.528-18.5a2.932,2.932,0,1,1,2.932-2.932A2.933,2.933,0,0,1,7.782,42.737Zm21.481,18.5H24.207V53.321c0-1.888-.038-4.318-2.627-4.318-2.635,0-3.038,2.056-3.038,4.181v8.056H13.486V44.96h4.851v2.224H18.4a5.326,5.326,0,0,1,4.79-2.627c5.117,0,6.069,3.373,6.069,7.759Z" transform="translate(0 -32)" fill="#b6b9d8"/>
</svg>
