<svg xmlns="http://www.w3.org/2000/svg" width="191.806" height="131.864" viewBox="0 0 191.806 131.864"><g transform="translate(-1089.689 -31.125) rotate(-3)"><path d="M16.347,65.506H0V15A15,15,0,0,1,15,0H65.546V20.619a10.756,10.756,0,0,1,8.39,1.06,10.909,10.909,0,0,1,0,18.9,10.76,10.76,0,0,1-8.39,1.06V65.506H46.8a15.227,15.227,0,0,1-30.453,0Z" transform="translate(1102.373 138.399) rotate(-16)" fill="#43bee5" style="mix-blend-mode:color-burn;isolation:isolate"/><path d="M16.323,65.534H0V15A15,15,0,0,1,15,0H65.452V20.641a10.754,10.754,0,0,1,8.4,1.062,10.9,10.9,0,0,1,0,18.884,10.754,10.754,0,0,1-8.4,1.062V65.534H46.733a15.205,15.205,0,0,1-30.41,0Z" transform="translate(1083.656 143.656) rotate(-16)" fill="#efa500"/><path d="M19.977,60.03H15a15,15,0,0,1-15-15v-6.76a9.85,9.85,0,0,0,7.275-1.08,10,10,0,0,0,0-17.322A9.846,9.846,0,0,0,0,18.787V15A15,15,0,0,1,15,0H45.067A14.981,14.981,0,0,1,57.228,6.217a16.787,16.787,0,0,1,3.759-.425,16.523,16.523,0,0,1,11.705,4.8,16.294,16.294,0,0,1,0,23.194,16.523,16.523,0,0,1-11.705,4.8c-.319,0-.628-.008-.921-.025v6.461a15,15,0,0,1-15,15H39.873a10.007,10.007,0,1,0-19.9,0Z" transform="translate(1171.229 122.179) rotate(-16)" fill="#f40085"/><path d="M19.977,60.03H16a16,16,0,0,1-16-16v-5.76a9.85,9.85,0,0,0,7.275-1.08,10,10,0,0,0,0-17.322A9.846,9.846,0,0,0,0,18.787V16A16,16,0,0,1,16,0H44.069a15.835,15.835,0,0,1,7.222,1.719,16.162,16.162,0,0,1,5.517,4.6,16.738,16.738,0,0,1,4.181-.527,16.522,16.522,0,0,1,11.7,4.8,16.292,16.292,0,0,1,0,23.194,16.522,16.522,0,0,1-11.7,4.8c-.32,0-.629-.008-.921-.025v5.461a16,16,0,0,1-16,16h-4.2a10.007,10.007,0,1,0-19.9,0Z" transform="translate(1184.055 118.501) rotate(-16)" fill="#f40085" style="mix-blend-mode:darken;isolation:isolate"/></g></svg>