<svg xmlns="http://www.w3.org/2000/svg" width="34.11" height="34.11" viewBox="0 0 34.11 34.11"><path d="M30.6,56.583c.022.373.022.746.022,1.119,0,11.379-7.034,24.49-19.89,24.49A17.177,17.177,0,0,1,0,78.328a11.775,11.775,0,0,0,1.688.107,12.441,12.441,0,0,0,8.679-3.677c-3.073-.08-5.649-2.558-6.536-5.969a7.2,7.2,0,0,0,1.32.133,6.094,6.094,0,0,0,1.84-.293c-3.2-.8-5.606-4.264-5.606-8.448v-.107a6.081,6.081,0,0,0,3.16,1.093A9.26,9.26,0,0,1,1.428,54a10.1,10.1,0,0,1,.952-4.344c3.441,5.223,8.614,8.634,14.415,9.007a11.883,11.883,0,0,1-.173-1.972c0-4.743,3.117-8.607,6.991-8.607A6.447,6.447,0,0,1,28.721,50.8a12.321,12.321,0,0,0,4.437-2.079,8.5,8.5,0,0,1-3.073,4.743,12.01,12.01,0,0,0,4.026-1.332,17.371,17.371,0,0,1-3.506,4.45Z" transform="translate(0 -48.082)" fill="#b6b9d8"/></svg>